<mxfile host="app.diagrams.net" modified="2023-10-31T16:27:16.287Z" agent="Mozilla/5.0 (Windows NT 10.0; Win64; x64) AppleWebKit/537.36 (KHTML, like Gecko) Chrome/118.0.0.0 Safari/537.36 Edg/118.0.2088.76" etag="wh0MeyzoC0zv4qCwESdv" version="22.0.8" type="github">
  <diagram name="Page-1" id="8faaFUQ-8QC-oTlVmQn0">
    <mxGraphModel dx="2276" dy="751" grid="1" gridSize="10" guides="1" tooltips="1" connect="1" arrows="1" fold="1" page="1" pageScale="1" pageWidth="850" pageHeight="1100" math="0" shadow="0">
      <root>
        <mxCell id="0" />
        <mxCell id="1" parent="0" />
        <mxCell id="J4beB_igEW5IKAxdDDhX-3" style="edgeStyle=orthogonalEdgeStyle;rounded=0;orthogonalLoop=1;jettySize=auto;html=1;exitX=0.5;exitY=1;exitDx=0;exitDy=0;entryX=0.5;entryY=0;entryDx=0;entryDy=0;" parent="1" source="J4beB_igEW5IKAxdDDhX-1" target="J4beB_igEW5IKAxdDDhX-2" edge="1">
          <mxGeometry relative="1" as="geometry" />
        </mxCell>
        <mxCell id="J4beB_igEW5IKAxdDDhX-1" value="&lt;font style=&quot;font-size: 14px;&quot; face=&quot;monospace&quot;&gt;APP&lt;/font&gt;" style="rounded=1;whiteSpace=wrap;html=1;" parent="1" vertex="1">
          <mxGeometry x="365" y="30" width="120" height="40" as="geometry" />
        </mxCell>
        <mxCell id="J4beB_igEW5IKAxdDDhX-8" value="" style="edgeStyle=orthogonalEdgeStyle;rounded=0;orthogonalLoop=1;jettySize=auto;html=1;" parent="1" source="J4beB_igEW5IKAxdDDhX-2" target="J4beB_igEW5IKAxdDDhX-7" edge="1">
          <mxGeometry relative="1" as="geometry" />
        </mxCell>
        <mxCell id="J4beB_igEW5IKAxdDDhX-2" value="&lt;font style=&quot;font-size: 14px;&quot; face=&quot;monospace&quot;&gt;Root&lt;/font&gt;" style="rounded=1;whiteSpace=wrap;html=1;" parent="1" vertex="1">
          <mxGeometry x="365" y="110" width="120" height="40" as="geometry" />
        </mxCell>
        <mxCell id="rSWFoihY8Tw9ghbF8Qy2-16" style="edgeStyle=orthogonalEdgeStyle;rounded=0;orthogonalLoop=1;jettySize=auto;html=1;exitX=0.75;exitY=0;exitDx=0;exitDy=0;entryX=0.75;entryY=1;entryDx=0;entryDy=0;" edge="1" parent="1">
          <mxGeometry relative="1" as="geometry">
            <mxPoint x="198.75" y="700" as="sourcePoint" />
            <mxPoint x="198.75" y="650" as="targetPoint" />
          </mxGeometry>
        </mxCell>
        <mxCell id="rSWFoihY8Tw9ghbF8Qy2-17" value="" style="edgeStyle=orthogonalEdgeStyle;rounded=0;orthogonalLoop=1;jettySize=auto;html=1;" edge="1" parent="1" source="J4beB_igEW5IKAxdDDhX-4" target="J4beB_igEW5IKAxdDDhX-33">
          <mxGeometry relative="1" as="geometry" />
        </mxCell>
        <mxCell id="rSWFoihY8Tw9ghbF8Qy2-18" style="edgeStyle=orthogonalEdgeStyle;rounded=0;orthogonalLoop=1;jettySize=auto;html=1;exitX=0;exitY=0.75;exitDx=0;exitDy=0;entryX=1;entryY=0.5;entryDx=0;entryDy=0;" edge="1" parent="1" source="J4beB_igEW5IKAxdDDhX-4" target="J4beB_igEW5IKAxdDDhX-34">
          <mxGeometry relative="1" as="geometry">
            <Array as="points">
              <mxPoint x="117" y="720" />
              <mxPoint x="92" y="720" />
              <mxPoint x="92" y="780" />
            </Array>
          </mxGeometry>
        </mxCell>
        <mxCell id="J4beB_igEW5IKAxdDDhX-4" value="&lt;font style=&quot;font-size: 14px;&quot; face=&quot;monospace&quot;&gt;Stores&lt;/font&gt;" style="rounded=1;whiteSpace=wrap;html=1;" parent="1" vertex="1">
          <mxGeometry x="117" y="700" width="125" height="40" as="geometry" />
        </mxCell>
        <mxCell id="J4beB_igEW5IKAxdDDhX-23" style="edgeStyle=orthogonalEdgeStyle;rounded=0;orthogonalLoop=1;jettySize=auto;html=1;exitX=0.5;exitY=1;exitDx=0;exitDy=0;entryX=0.5;entryY=0;entryDx=0;entryDy=0;" parent="1" source="J4beB_igEW5IKAxdDDhX-7" target="J4beB_igEW5IKAxdDDhX-9" edge="1">
          <mxGeometry relative="1" as="geometry" />
        </mxCell>
        <mxCell id="J4beB_igEW5IKAxdDDhX-7" value="&lt;font style=&quot;font-size: 14px;&quot; face=&quot;monospace&quot;&gt;Authentication&lt;/font&gt;" style="rounded=1;whiteSpace=wrap;html=1;" parent="1" vertex="1">
          <mxGeometry x="365" y="180" width="120" height="40" as="geometry" />
        </mxCell>
        <mxCell id="J4beB_igEW5IKAxdDDhX-20" style="edgeStyle=orthogonalEdgeStyle;rounded=0;orthogonalLoop=1;jettySize=auto;html=1;exitX=0.5;exitY=1;exitDx=0;exitDy=0;entryX=0.5;entryY=0;entryDx=0;entryDy=0;" parent="1" source="J4beB_igEW5IKAxdDDhX-9" target="J4beB_igEW5IKAxdDDhX-18" edge="1">
          <mxGeometry relative="1" as="geometry" />
        </mxCell>
        <mxCell id="J4beB_igEW5IKAxdDDhX-21" style="edgeStyle=orthogonalEdgeStyle;rounded=0;orthogonalLoop=1;jettySize=auto;html=1;exitX=0.25;exitY=1;exitDx=0;exitDy=0;entryX=0.5;entryY=0;entryDx=0;entryDy=0;" parent="1" source="J4beB_igEW5IKAxdDDhX-9" target="J4beB_igEW5IKAxdDDhX-17" edge="1">
          <mxGeometry relative="1" as="geometry">
            <Array as="points">
              <mxPoint x="247" y="302" />
              <mxPoint x="247" y="322" />
              <mxPoint x="107" y="322" />
            </Array>
          </mxGeometry>
        </mxCell>
        <mxCell id="J4beB_igEW5IKAxdDDhX-22" style="edgeStyle=orthogonalEdgeStyle;rounded=0;orthogonalLoop=1;jettySize=auto;html=1;exitX=0.75;exitY=1;exitDx=0;exitDy=0;entryX=0.5;entryY=0;entryDx=0;entryDy=0;" parent="1" source="J4beB_igEW5IKAxdDDhX-9" target="J4beB_igEW5IKAxdDDhX-19" edge="1">
          <mxGeometry relative="1" as="geometry">
            <Array as="points">
              <mxPoint x="247" y="302" />
              <mxPoint x="247" y="322" />
              <mxPoint x="387" y="322" />
            </Array>
          </mxGeometry>
        </mxCell>
        <mxCell id="J4beB_igEW5IKAxdDDhX-9" value="&lt;font style=&quot;font-size: 14px;&quot; face=&quot;monospace&quot;&gt;Anonymous&lt;/font&gt;" style="rounded=1;whiteSpace=wrap;html=1;" parent="1" vertex="1">
          <mxGeometry x="187" y="262" width="120" height="40" as="geometry" />
        </mxCell>
        <mxCell id="J4beB_igEW5IKAxdDDhX-29" value="" style="edgeStyle=orthogonalEdgeStyle;rounded=0;orthogonalLoop=1;jettySize=auto;html=1;" parent="1" source="J4beB_igEW5IKAxdDDhX-10" target="J4beB_igEW5IKAxdDDhX-27" edge="1">
          <mxGeometry relative="1" as="geometry" />
        </mxCell>
        <mxCell id="J4beB_igEW5IKAxdDDhX-10" value="&lt;font style=&quot;font-size: 14px;&quot; face=&quot;monospace&quot;&gt;Authenticated&lt;/font&gt;" style="rounded=1;whiteSpace=wrap;html=1;" parent="1" vertex="1">
          <mxGeometry x="510" y="262" width="120" height="40" as="geometry" />
        </mxCell>
        <mxCell id="J4beB_igEW5IKAxdDDhX-17" value="&lt;font style=&quot;font-size: 14px;&quot; face=&quot;monospace&quot;&gt;Login Page&lt;/font&gt;" style="rounded=1;whiteSpace=wrap;html=1;" parent="1" vertex="1">
          <mxGeometry x="47" y="342" width="120" height="40" as="geometry" />
        </mxCell>
        <mxCell id="J4beB_igEW5IKAxdDDhX-18" value="&lt;font style=&quot;font-size: 14px;&quot; face=&quot;monospace&quot;&gt;Reset password&lt;/font&gt;" style="rounded=1;whiteSpace=wrap;html=1;" parent="1" vertex="1">
          <mxGeometry x="187" y="342" width="120" height="40" as="geometry" />
        </mxCell>
        <mxCell id="J4beB_igEW5IKAxdDDhX-19" value="&lt;font style=&quot;font-size: 14px;&quot; face=&quot;monospace&quot;&gt;Login by&lt;br&gt;e-mail&lt;/font&gt;" style="rounded=1;whiteSpace=wrap;html=1;" parent="1" vertex="1">
          <mxGeometry x="327" y="342" width="120" height="40" as="geometry" />
        </mxCell>
        <mxCell id="J4beB_igEW5IKAxdDDhX-26" style="edgeStyle=orthogonalEdgeStyle;rounded=0;orthogonalLoop=1;jettySize=auto;html=1;entryX=0.5;entryY=0;entryDx=0;entryDy=0;exitX=0.5;exitY=1;exitDx=0;exitDy=0;" parent="1" source="J4beB_igEW5IKAxdDDhX-7" edge="1">
          <mxGeometry relative="1" as="geometry">
            <mxPoint x="430" y="240" as="sourcePoint" />
            <mxPoint x="570" y="262" as="targetPoint" />
          </mxGeometry>
        </mxCell>
        <mxCell id="J4beB_igEW5IKAxdDDhX-30" value="" style="edgeStyle=orthogonalEdgeStyle;rounded=0;orthogonalLoop=1;jettySize=auto;html=1;" parent="1" source="J4beB_igEW5IKAxdDDhX-27" target="J4beB_igEW5IKAxdDDhX-28" edge="1">
          <mxGeometry relative="1" as="geometry" />
        </mxCell>
        <mxCell id="J4beB_igEW5IKAxdDDhX-32" style="edgeStyle=orthogonalEdgeStyle;rounded=0;orthogonalLoop=1;jettySize=auto;html=1;entryX=0.5;entryY=0;entryDx=0;entryDy=0;" parent="1" source="J4beB_igEW5IKAxdDDhX-27" target="J4beB_igEW5IKAxdDDhX-31" edge="1">
          <mxGeometry relative="1" as="geometry">
            <Array as="points">
              <mxPoint x="570" y="400" />
              <mxPoint x="710" y="400" />
            </Array>
          </mxGeometry>
        </mxCell>
        <mxCell id="J4beB_igEW5IKAxdDDhX-27" value="&lt;font style=&quot;font-size: 14px;&quot; face=&quot;monospace&quot;&gt;Identify User&lt;/font&gt;" style="rounded=1;whiteSpace=wrap;html=1;" parent="1" vertex="1">
          <mxGeometry x="510" y="342" width="120" height="40" as="geometry" />
        </mxCell>
        <mxCell id="rSWFoihY8Tw9ghbF8Qy2-20" value="" style="edgeStyle=orthogonalEdgeStyle;rounded=0;orthogonalLoop=1;jettySize=auto;html=1;" edge="1" parent="1" source="J4beB_igEW5IKAxdDDhX-28" target="J4beB_igEW5IKAxdDDhX-39">
          <mxGeometry relative="1" as="geometry" />
        </mxCell>
        <mxCell id="J4beB_igEW5IKAxdDDhX-28" value="&lt;font style=&quot;font-size: 14px;&quot; face=&quot;monospace&quot;&gt;Dashboard&lt;/font&gt;" style="rounded=1;whiteSpace=wrap;html=1;" parent="1" vertex="1">
          <mxGeometry x="510" y="430" width="120" height="40" as="geometry" />
        </mxCell>
        <mxCell id="J4beB_igEW5IKAxdDDhX-31" value="&lt;font style=&quot;font-size: 14px;&quot; face=&quot;monospace&quot;&gt;Profile&lt;/font&gt;" style="rounded=1;whiteSpace=wrap;html=1;" parent="1" vertex="1">
          <mxGeometry x="650" y="430" width="120" height="40" as="geometry" />
        </mxCell>
        <mxCell id="J4beB_igEW5IKAxdDDhX-33" value="&lt;font style=&quot;&quot; face=&quot;monospace&quot;&gt;&lt;span style=&quot;font-size: 14px;&quot;&gt;Authentication&lt;br&gt;&lt;/span&gt;&lt;/font&gt;&lt;font style=&quot;font-size: 14px;&quot; face=&quot;monospace&quot;&gt;Store&lt;/font&gt;" style="rounded=1;whiteSpace=wrap;html=1;" parent="1" vertex="1">
          <mxGeometry x="-53" y="700" width="120" height="40" as="geometry" />
        </mxCell>
        <mxCell id="J4beB_igEW5IKAxdDDhX-34" value="&lt;font style=&quot;font-size: 14px;&quot; face=&quot;monospace&quot;&gt;User Store&lt;/font&gt;" style="rounded=1;whiteSpace=wrap;html=1;" parent="1" vertex="1">
          <mxGeometry x="-53" y="760" width="120" height="40" as="geometry" />
        </mxCell>
        <mxCell id="rSWFoihY8Tw9ghbF8Qy2-3" value="" style="edgeStyle=orthogonalEdgeStyle;rounded=0;orthogonalLoop=1;jettySize=auto;html=1;" edge="1" parent="1" source="J4beB_igEW5IKAxdDDhX-39" target="J4beB_igEW5IKAxdDDhX-41">
          <mxGeometry relative="1" as="geometry" />
        </mxCell>
        <mxCell id="rSWFoihY8Tw9ghbF8Qy2-4" style="edgeStyle=orthogonalEdgeStyle;rounded=0;orthogonalLoop=1;jettySize=auto;html=1;" edge="1" parent="1" source="J4beB_igEW5IKAxdDDhX-41" target="J4beB_igEW5IKAxdDDhX-45">
          <mxGeometry relative="1" as="geometry">
            <Array as="points">
              <mxPoint x="480" y="560" />
              <mxPoint x="480" y="630" />
            </Array>
          </mxGeometry>
        </mxCell>
        <mxCell id="J4beB_igEW5IKAxdDDhX-39" value="&lt;font style=&quot;font-size: 14px;&quot; face=&quot;monospace&quot;&gt;Modules&lt;/font&gt;" style="rounded=1;whiteSpace=wrap;html=1;" parent="1" vertex="1">
          <mxGeometry x="507.5" y="540" width="125" height="40" as="geometry" />
        </mxCell>
        <mxCell id="rSWFoihY8Tw9ghbF8Qy2-9" style="edgeStyle=orthogonalEdgeStyle;rounded=0;orthogonalLoop=1;jettySize=auto;html=1;entryX=0.5;entryY=1;entryDx=0;entryDy=0;" edge="1" parent="1" source="J4beB_igEW5IKAxdDDhX-43" target="J4beB_igEW5IKAxdDDhX-39">
          <mxGeometry relative="1" as="geometry">
            <mxPoint x="545" y="579" as="targetPoint" />
            <mxPoint x="545" y="739" as="sourcePoint" />
          </mxGeometry>
        </mxCell>
        <mxCell id="J4beB_igEW5IKAxdDDhX-43" value="&lt;font style=&quot;font-size: 14px;&quot; face=&quot;monospace&quot;&gt;Re-usable UI components&lt;br&gt;&lt;/font&gt;&lt;code&gt;&lt;font style=&quot;font-size: 14px;&quot;&gt;without business logic&lt;/font&gt;&lt;/code&gt;" style="rounded=1;whiteSpace=wrap;html=1;" parent="1" vertex="1">
          <mxGeometry x="510" y="700" width="120" height="100" as="geometry" />
        </mxCell>
        <mxCell id="J4beB_igEW5IKAxdDDhX-45" value="&lt;code&gt;&lt;font style=&quot;font-size: 14px;&quot;&gt;{some-module&lt;span class=&quot;o&quot;&gt;}&lt;/span&gt;&lt;/font&gt;&lt;/code&gt;" style="rounded=1;whiteSpace=wrap;html=1;" parent="1" vertex="1">
          <mxGeometry x="327" y="610" width="120" height="40" as="geometry" />
        </mxCell>
        <mxCell id="rSWFoihY8Tw9ghbF8Qy2-7" style="edgeStyle=orthogonalEdgeStyle;rounded=0;orthogonalLoop=1;jettySize=auto;html=1;exitX=1;exitY=0.75;exitDx=0;exitDy=0;entryX=0;entryY=0.75;entryDx=0;entryDy=0;" edge="1" parent="1">
          <mxGeometry relative="1" as="geometry">
            <mxPoint x="242" y="565" as="sourcePoint" />
            <mxPoint x="327" y="565" as="targetPoint" />
          </mxGeometry>
        </mxCell>
        <mxCell id="rSWFoihY8Tw9ghbF8Qy2-15" value="" style="edgeStyle=orthogonalEdgeStyle;rounded=0;orthogonalLoop=1;jettySize=auto;html=1;" edge="1" parent="1">
          <mxGeometry relative="1" as="geometry">
            <mxPoint x="163.5" y="650" as="sourcePoint" />
            <mxPoint x="163.5" y="700" as="targetPoint" />
          </mxGeometry>
        </mxCell>
        <mxCell id="rSWFoihY8Tw9ghbF8Qy2-1" value="&lt;font face=&quot;monospace&quot; style=&quot;font-size: 14px;&quot;&gt;API&lt;/font&gt;" style="rounded=1;whiteSpace=wrap;html=1;" vertex="1" parent="1">
          <mxGeometry x="117" y="540" width="125" height="110" as="geometry" />
        </mxCell>
        <mxCell id="rSWFoihY8Tw9ghbF8Qy2-5" value="" style="edgeStyle=orthogonalEdgeStyle;rounded=0;orthogonalLoop=1;jettySize=auto;html=1;" edge="1" parent="1" source="J4beB_igEW5IKAxdDDhX-39" target="J4beB_igEW5IKAxdDDhX-41">
          <mxGeometry relative="1" as="geometry">
            <mxPoint x="480" y="560" as="sourcePoint" />
            <mxPoint x="360" y="620" as="targetPoint" />
          </mxGeometry>
        </mxCell>
        <mxCell id="rSWFoihY8Tw9ghbF8Qy2-6" value="" style="edgeStyle=orthogonalEdgeStyle;rounded=0;orthogonalLoop=1;jettySize=auto;html=1;" edge="1" parent="1">
          <mxGeometry relative="1" as="geometry">
            <mxPoint x="327" y="554" as="sourcePoint" />
            <mxPoint x="242" y="554" as="targetPoint" />
          </mxGeometry>
        </mxCell>
        <mxCell id="J4beB_igEW5IKAxdDDhX-41" value="&lt;font face=&quot;monospace&quot;&gt;&lt;font style=&quot;font-size: 14px;&quot;&gt;Authentication&lt;br&gt;Module&lt;/font&gt;&lt;br&gt;&lt;/font&gt;" style="rounded=1;whiteSpace=wrap;html=1;" parent="1" vertex="1">
          <mxGeometry x="327" y="540" width="120" height="40" as="geometry" />
        </mxCell>
        <mxCell id="rSWFoihY8Tw9ghbF8Qy2-11" style="edgeStyle=orthogonalEdgeStyle;rounded=0;orthogonalLoop=1;jettySize=auto;html=1;exitX=1;exitY=0.75;exitDx=0;exitDy=0;entryX=0;entryY=0.75;entryDx=0;entryDy=0;" edge="1" parent="1">
          <mxGeometry relative="1" as="geometry">
            <mxPoint x="242" y="635" as="sourcePoint" />
            <mxPoint x="327" y="635" as="targetPoint" />
          </mxGeometry>
        </mxCell>
        <mxCell id="rSWFoihY8Tw9ghbF8Qy2-12" value="" style="edgeStyle=orthogonalEdgeStyle;rounded=0;orthogonalLoop=1;jettySize=auto;html=1;" edge="1" parent="1">
          <mxGeometry relative="1" as="geometry">
            <mxPoint x="327" y="624" as="sourcePoint" />
            <mxPoint x="242" y="624" as="targetPoint" />
          </mxGeometry>
        </mxCell>
      </root>
    </mxGraphModel>
  </diagram>
</mxfile>
